<svg width="175" height="175" viewBox="0 0 175 175" fill="none" xmlns="http://www.w3.org/2000/svg">
<rect width="175" height="175" fill="#00AB37"/>
<path d="M46.9205 153.273V162H45.8977L41.1421 155.148H41.0568V162H40V153.273H41.0227L45.7955 160.142H45.8807V153.273H46.9205ZM53.0238 159.324V155.455H54.0295V162H53.0238V160.892H52.9556C52.8022 161.224 52.5636 161.507 52.2397 161.74C51.9159 161.97 51.5068 162.085 51.0124 162.085C50.6034 162.085 50.2397 161.996 49.9215 161.817C49.6034 161.635 49.3534 161.362 49.1715 160.999C48.9897 160.632 48.8988 160.17 48.8988 159.614V155.455H49.9045V159.545C49.9045 160.023 50.038 160.403 50.3051 160.688C50.5749 160.972 50.9187 161.114 51.3363 161.114C51.5863 161.114 51.8406 161.05 52.0991 160.922C52.3605 160.794 52.5792 160.598 52.7553 160.334C52.9343 160.07 53.0238 159.733 53.0238 159.324ZM51.0124 154.568L52.0522 152.591H53.2284L51.8988 154.568H51.0124ZM55.8715 162V155.455H56.8431V156.477H56.9283C57.0646 156.128 57.2848 155.857 57.5888 155.663C57.8928 155.467 58.2578 155.369 58.684 155.369C59.1158 155.369 59.4752 155.467 59.7621 155.663C60.0519 155.857 60.2777 156.128 60.4396 156.477H60.5078C60.6754 156.139 60.9269 155.871 61.2621 155.672C61.5973 155.47 61.9993 155.369 62.4681 155.369C63.0533 155.369 63.532 155.553 63.9041 155.919C64.2763 156.283 64.4624 156.849 64.4624 157.619V162H63.4567V157.619C63.4567 157.136 63.3246 156.791 63.0604 156.584C62.7962 156.376 62.4851 156.273 62.1271 156.273C61.6669 156.273 61.3104 156.412 61.0575 156.69C60.8047 156.966 60.6783 157.315 60.6783 157.739V162H59.6556V157.517C59.6556 157.145 59.5348 156.845 59.2933 156.618C59.0519 156.388 58.7408 156.273 58.3601 156.273C58.0987 156.273 57.8544 156.342 57.6271 156.482C57.4027 156.621 57.2209 156.814 57.0817 157.061C56.9453 157.305 56.8771 157.588 56.8771 157.909V162H55.8715ZM69.0455 162.136C68.4148 162.136 67.8708 161.997 67.4134 161.719C66.9588 161.438 66.608 161.045 66.3608 160.543C66.1165 160.037 65.9943 159.449 65.9943 158.778C65.9943 158.108 66.1165 157.517 66.3608 157.006C66.608 156.491 66.9517 156.091 67.3921 155.804C67.8352 155.514 68.3523 155.369 68.9432 155.369C69.2841 155.369 69.6208 155.426 69.9531 155.54C70.2855 155.653 70.5881 155.838 70.8608 156.094C71.1335 156.347 71.3509 156.682 71.5128 157.099C71.6747 157.517 71.7557 158.031 71.7557 158.642V159.068H66.7102V158.199H70.733C70.733 157.83 70.6591 157.5 70.5114 157.21C70.3665 156.92 70.1591 156.692 69.8892 156.524C69.6222 156.357 69.3068 156.273 68.9432 156.273C68.5426 156.273 68.196 156.372 67.9034 156.571C67.6137 156.767 67.3906 157.023 67.2344 157.338C67.0781 157.653 67 157.991 67 158.352V158.932C67 159.426 67.0852 159.845 67.2557 160.189C67.429 160.53 67.6691 160.79 67.9759 160.969C68.2827 161.145 68.6392 161.233 69.0455 161.233C69.3097 161.233 69.5483 161.196 69.7614 161.122C69.9773 161.045 70.1634 160.932 70.3196 160.781C70.4759 160.628 70.5966 160.437 70.6818 160.21L71.6534 160.483C71.5512 160.812 71.3793 161.102 71.1378 161.352C70.8963 161.599 70.598 161.793 70.2429 161.932C69.8878 162.068 69.4887 162.136 69.0455 162.136ZM73.2855 162V155.455H74.2571V156.443H74.3253C74.4446 156.119 74.6605 155.857 74.973 155.655C75.2855 155.453 75.6378 155.352 76.0298 155.352C76.1037 155.352 76.196 155.354 76.3068 155.357C76.4176 155.359 76.5014 155.364 76.5583 155.369V156.392C76.5242 156.384 76.446 156.371 76.3239 156.354C76.2046 156.334 76.0781 156.324 75.9446 156.324C75.6264 156.324 75.3423 156.391 75.0923 156.524C74.8452 156.655 74.6492 156.837 74.5043 157.07C74.3622 157.3 74.2912 157.562 74.2912 157.858V162H73.2855ZM80.2102 162.136C79.6193 162.136 79.1009 161.996 78.6548 161.714C78.2117 161.433 77.8651 161.04 77.6151 160.534C77.3679 160.028 77.2443 159.437 77.2443 158.761C77.2443 158.08 77.3679 157.484 77.6151 156.976C77.8651 156.467 78.2117 156.072 78.6548 155.791C79.1009 155.51 79.6193 155.369 80.2102 155.369C80.8012 155.369 81.3182 155.51 81.7614 155.791C82.2074 156.072 82.554 156.467 82.8012 156.976C83.0512 157.484 83.1762 158.08 83.1762 158.761C83.1762 159.437 83.0512 160.028 82.8012 160.534C82.554 161.04 82.2074 161.433 81.7614 161.714C81.3182 161.996 80.8012 162.136 80.2102 162.136ZM80.2102 161.233C80.6591 161.233 81.0284 161.118 81.3182 160.888C81.608 160.658 81.8225 160.355 81.9617 159.98C82.1009 159.605 82.1705 159.199 82.1705 158.761C82.1705 158.324 82.1009 157.916 81.9617 157.538C81.8225 157.161 81.608 156.855 81.3182 156.622C81.0284 156.389 80.6591 156.273 80.2102 156.273C79.7614 156.273 79.3921 156.389 79.1023 156.622C78.8125 156.855 78.598 157.161 78.4588 157.538C78.3196 157.916 78.25 158.324 78.25 158.761C78.25 159.199 78.3196 159.605 78.4588 159.98C78.598 160.355 78.8125 160.658 79.1023 160.888C79.3921 161.118 79.7614 161.233 80.2102 161.233ZM90.5579 162.136C90.0124 162.136 89.5309 161.999 89.1133 161.723C88.6957 161.445 88.369 161.053 88.1332 160.547C87.8974 160.038 87.7795 159.438 87.7795 158.744C87.7795 158.057 87.8974 157.46 88.1332 156.955C88.369 156.449 88.6971 156.058 89.1176 155.783C89.538 155.507 90.0238 155.369 90.5749 155.369C91.0011 155.369 91.3377 155.44 91.5849 155.582C91.8349 155.722 92.0252 155.881 92.1559 156.06C92.2894 156.236 92.3931 156.381 92.467 156.494H92.5522V153.273H93.5579V162H92.5863V160.994H92.467C92.3931 161.114 92.288 161.264 92.1517 161.446C92.0153 161.625 91.8207 161.786 91.5678 161.928C91.315 162.067 90.9784 162.136 90.5579 162.136ZM90.6943 161.233C91.0977 161.233 91.4386 161.128 91.717 160.918C91.9954 160.705 92.207 160.411 92.3519 160.036C92.4968 159.658 92.5693 159.222 92.5693 158.727C92.5693 158.239 92.4982 157.811 92.3562 157.445C92.2142 157.075 92.0039 156.788 91.7255 156.584C91.4471 156.376 91.1034 156.273 90.6943 156.273C90.2681 156.273 89.913 156.382 89.6289 156.601C89.3477 156.817 89.136 157.111 88.994 157.483C88.8548 157.852 88.7852 158.267 88.7852 158.727C88.7852 159.193 88.8562 159.616 88.9982 159.997C89.1431 160.375 89.3562 160.676 89.6374 160.901C89.9215 161.122 90.2738 161.233 90.6943 161.233ZM97.4656 162.153C97.0508 162.153 96.6744 162.075 96.3363 161.919C95.9982 161.76 95.7298 161.531 95.5309 161.233C95.332 160.932 95.2326 160.568 95.2326 160.142C95.2326 159.767 95.3065 159.463 95.4542 159.23C95.6019 158.994 95.7994 158.81 96.0465 158.676C96.2937 158.543 96.5664 158.443 96.8647 158.378C97.1659 158.31 97.4684 158.256 97.7724 158.216C98.1702 158.165 98.4922 158.126 98.7402 158.101C98.9902 158.072 99.1712 158.026 99.2852 157.96C99.4012 157.895 99.4602 157.781 99.4602 157.619V157.585C99.4602 157.165 99.3452 156.838 99.1152 156.605C98.8872 156.372 98.5422 156.256 98.0792 156.256C97.5991 156.256 97.2227 156.361 96.9499 156.571C96.6772 156.781 96.4855 157.006 96.3747 157.244L95.4201 156.903C95.5906 156.506 95.8178 156.196 96.1019 155.974C96.3889 155.75 96.7014 155.594 97.0394 155.506C97.3803 155.415 97.7156 155.369 98.0452 155.369C98.2552 155.369 98.4972 155.395 98.7692 155.446C99.0452 155.494 99.3112 155.595 99.5662 155.749C99.8252 155.902 100.039 156.134 100.21 156.443C100.38 156.753 100.465 157.168 100.465 157.688V162H99.4602V161.114H99.4092C99.3402 161.256 99.2272 161.408 99.0682 161.57C98.9092 161.732 98.6972 161.869 98.4332 161.983C98.1682 162.097 97.8463 162.153 97.4656 162.153ZM97.619 161.25C98.0172 161.25 98.3522 161.172 98.6242 161.016C98.9002 160.859 99.1072 160.658 99.2472 160.411C99.3892 160.163 99.4602 159.903 99.4602 159.631V158.71C99.4172 158.761 99.3232 158.808 99.1782 158.851C99.0362 158.891 98.8722 158.926 98.6842 158.957C98.4992 158.986 98.3192 159.011 98.1432 159.034C97.9702 159.054 97.8292 159.071 97.7213 159.085C97.4599 159.119 97.2156 159.175 96.9883 159.251C96.7639 159.325 96.582 159.437 96.4428 159.588C96.3065 159.736 96.2383 159.937 96.2383 160.193C96.2383 160.543 96.3676 160.807 96.6261 160.986C96.8874 161.162 97.2184 161.25 97.619 161.25ZM110.312 156.92L109.409 157.176C109.352 157.026 109.268 156.879 109.157 156.737C109.05 156.592 108.902 156.473 108.714 156.379C108.527 156.286 108.287 156.239 107.994 156.239C107.594 156.239 107.26 156.331 106.993 156.516C106.729 156.697 106.596 156.929 106.596 157.21C106.596 157.46 106.687 157.658 106.869 157.803C107.051 157.947 107.335 158.068 107.721 158.165L108.693 158.403C109.278 158.545 109.714 158.763 110.001 159.055C110.288 159.345 110.432 159.719 110.432 160.176C110.432 160.551 110.324 160.886 110.108 161.182C109.895 161.477 109.596 161.71 109.213 161.881C108.829 162.051 108.383 162.136 107.875 162.136C107.207 162.136 106.655 161.991 106.217 161.702C105.78 161.412 105.503 160.989 105.386 160.432L106.341 160.193C106.432 160.545 106.604 160.81 106.856 160.986C107.112 161.162 107.446 161.25 107.858 161.25C108.327 161.25 108.699 161.151 108.974 160.952C109.253 160.75 109.392 160.509 109.392 160.227C109.392 160 109.312 159.81 109.153 159.656C108.994 159.5 108.75 159.384 108.42 159.307L107.329 159.051C106.73 158.909 106.29 158.689 106.008 158.391C105.73 158.089 105.591 157.713 105.591 157.261C105.591 156.892 105.694 156.565 105.902 156.281C106.112 155.997 106.398 155.774 106.758 155.612C107.122 155.45 107.534 155.369 107.994 155.369C108.642 155.369 109.15 155.511 109.52 155.795C109.892 156.08 110.156 156.455 110.312 156.92ZM114.605 162.136C114.014 162.136 113.495 161.996 113.049 161.714C112.606 161.433 112.259 161.04 112.009 160.534C111.762 160.028 111.639 159.437 111.639 158.761C111.639 158.08 111.762 157.484 112.009 156.976C112.259 156.467 112.606 156.072 113.049 155.791C113.495 155.51 114.014 155.369 114.605 155.369C115.195 155.369 115.713 155.51 116.156 155.791C116.602 156.072 116.948 156.467 117.195 156.976C117.445 157.484 117.57 158.08 117.57 158.761C117.57 159.437 117.445 160.028 117.195 160.534C116.948 161.04 116.602 161.433 116.156 161.714C115.713 161.996 115.195 162.136 114.605 162.136ZM114.605 161.233C115.053 161.233 115.423 161.118 115.713 160.888C116.002 160.658 116.217 160.355 116.356 159.98C116.495 159.605 116.565 159.199 116.565 158.761C116.565 158.324 116.495 157.916 116.356 157.538C116.217 157.161 116.002 156.855 115.713 156.622C115.423 156.389 115.053 156.273 114.605 156.273C114.156 156.273 113.786 156.389 113.497 156.622C113.207 156.855 112.992 157.161 112.853 157.538C112.714 157.916 112.644 158.324 112.644 158.761C112.644 159.199 112.714 159.605 112.853 159.98C112.992 160.355 113.207 160.658 113.497 160.888C113.786 161.118 114.156 161.233 114.605 161.233ZM119.106 162V155.455H120.077V156.443H120.145C120.265 156.119 120.481 155.857 120.793 155.655C121.106 155.453 121.458 155.352 121.85 155.352C121.924 155.352 122.016 155.354 122.127 155.357C122.238 155.359 122.322 155.364 122.378 155.369V156.392C122.344 156.384 122.266 156.371 122.144 156.354C122.025 156.334 121.898 156.324 121.765 156.324C121.447 156.324 121.162 156.391 120.912 156.524C120.665 156.655 120.469 156.837 120.324 157.07C120.182 157.3 120.111 157.562 120.111 157.858V162H119.106ZM126.827 155.455V156.307H123.435V155.455H126.827ZM124.424 153.886H125.43V160.125C125.43 160.409 125.471 160.622 125.553 160.764C125.638 160.903 125.746 160.997 125.877 161.045C126.01 161.091 126.151 161.114 126.299 161.114C126.41 161.114 126.501 161.108 126.572 161.097C126.643 161.082 126.699 161.071 126.742 161.062L126.947 161.966C126.878 161.991 126.783 162.017 126.661 162.043C126.539 162.071 126.384 162.085 126.197 162.085C125.912 162.085 125.634 162.024 125.361 161.902C125.091 161.78 124.867 161.594 124.688 161.344C124.512 161.094 124.424 160.778 124.424 160.398V153.886ZM131.014 162.136C130.383 162.136 129.839 161.997 129.382 161.719C128.927 161.438 128.577 161.045 128.329 160.543C128.085 160.037 127.963 159.449 127.963 158.778C127.963 158.108 128.085 157.517 128.329 157.006C128.577 156.491 128.92 156.091 129.361 155.804C129.804 155.514 130.321 155.369 130.912 155.369C131.253 155.369 131.589 155.426 131.922 155.54C132.254 155.653 132.557 155.838 132.829 156.094C133.102 156.347 133.319 156.682 133.481 157.099C133.643 157.517 133.724 158.031 133.724 158.642V159.068H128.679V158.199H132.702C132.702 157.83 132.628 157.5 132.48 157.21C132.335 156.92 132.128 156.692 131.858 156.524C131.591 156.357 131.275 156.273 130.912 156.273C130.511 156.273 130.165 156.372 129.872 156.571C129.582 156.767 129.359 157.023 129.203 157.338C129.047 157.653 128.969 157.991 128.969 158.352V158.932C128.969 159.426 129.054 159.845 129.224 160.189C129.398 160.53 129.638 160.79 129.944 160.969C130.251 161.145 130.608 161.233 131.014 161.233C131.278 161.233 131.517 161.196 131.73 161.122C131.946 161.045 132.132 160.932 132.288 160.781C132.444 160.628 132.565 160.437 132.65 160.21L133.622 160.483C133.52 160.812 133.348 161.102 133.106 161.352C132.865 161.599 132.567 161.793 132.211 161.932C131.856 162.068 131.457 162.136 131.014 162.136Z" fill="white"/>
<path fill-rule="evenodd" clip-rule="evenodd" d="M109.72 53.0358C98.2002 50.8091 89.4006 48.6891 87.4673 48.2091L87.454 48.0625L87.4406 48.0225C89.4673 47.5958 99.4142 45.7025 110.2 46.6891C129.667 48.4758 127.414 22.2358 111.907 26.7958C117.547 12.0091 95.734 6.0758 91.9873 25.4491C89.7473 37.0491 87.6006 45.8758 87.1473 47.7292C87.1073 47.7158 87.0673 47.7158 87.0273 47.7158L86.974 47.7292C86.5606 45.7158 84.654 35.7692 85.6406 24.9692C87.4273 5.50249 61.1873 7.75578 65.7473 23.2624C50.9473 17.6224 45.0273 39.4224 64.4006 43.1691C75.9873 45.4224 84.814 47.5558 86.6806 48.0091C86.6673 48.0491 86.654 48.1025 86.6673 48.1425V48.1958C84.614 48.6225 74.6806 50.5158 63.9073 49.5291C44.454 47.7425 46.694 73.9824 62.2006 69.4224C56.5606 84.2091 78.374 90.1291 82.1206 70.7558C84.1073 60.5558 86.0006 52.4891 86.734 49.4358C87.0406 55.4491 86.4273 61.4758 85.1873 67.3424C83.8673 73.6491 81.8806 79.8091 79.8006 85.9425C77.6273 92.0358 75.6273 98.4225 74.8006 105.009C73.9073 111.596 74.054 118.382 75.3473 124.969V124.982L75.3606 125.049C75.6006 126.076 76.6273 126.716 77.654 126.476C78.694 126.223 79.334 125.196 79.094 124.169C77.654 118.036 77.254 111.676 77.8673 105.369C78.1606 102.209 78.694 99.0625 79.4273 95.9558C80.1473 92.8358 81.094 89.7824 82.0273 86.6491C83.8806 80.4091 85.6406 74.1025 86.7206 67.6358C87.6006 62.4625 88.0006 57.1958 87.7606 51.9558C88.4006 56.2225 89.174 63.5158 88.4673 71.2491C86.6806 90.7024 112.934 88.4625 108.374 72.9558C123.16 78.5958 129.094 56.7825 109.72 53.0358Z" fill="white"/>
</svg>
