<svg width="75" height="116" viewBox="0 0 75 116" fill="none" xmlns="http://www.w3.org/2000/svg">
<path d="M37.3633 42.2686C37.4866 47.0429 37.0888 51.8352 36.2861 56.5537V56.5557C35.3458 62.1858 33.8861 67.699 32.2949 73.168L31.6064 75.5088C30.6756 78.6339 29.7225 81.7064 28.998 84.8457C28.2603 87.9716 27.7234 91.1397 27.4277 94.3232C26.8479 100.286 27.1661 106.297 28.4053 112.124L28.665 113.287C28.8408 114.041 28.3729 114.804 27.5938 114.993C26.8383 115.167 26.0823 114.696 25.9053 113.938V113.924L25.8955 113.876C24.6132 107.345 24.4672 100.614 25.3535 94.0791H25.3545V94.0742C26.1743 87.5431 28.1599 81.1978 30.3301 75.1133L30.332 75.1055C32.4127 68.9702 34.4086 62.7857 35.7354 56.4473C36.7181 51.7975 37.3074 47.0425 37.3633 42.2686ZM37.4053 37.6953C39.3451 38.1769 48.1538 40.2996 59.6846 42.5283C64.434 43.4468 67.5798 45.4605 69.4287 47.8311C71.2784 50.2027 71.8557 52.9615 71.4248 55.4316C70.9934 57.9046 69.5533 60.0846 67.3623 61.3154C65.1787 62.542 62.1931 62.856 58.6123 61.4902L57.6699 61.1309L57.9541 62.0986C59.0528 65.8349 58.2838 68.7019 56.6162 70.6436C54.9333 72.6028 52.2808 73.6829 49.5137 73.7148C46.7508 73.7467 43.9198 72.7319 41.8887 70.5635C39.8646 68.4025 38.5874 65.0447 39.0234 60.2969C39.7353 52.5076 38.9565 45.1695 38.3135 40.8828L37.3662 40.9746C37.3587 40.1204 37.3356 39.2655 37.292 38.4111L36.3066 38.3203C35.5722 41.378 33.6771 49.4524 31.6885 59.6621L31.6875 59.6631C30.769 64.4121 28.7554 67.5582 26.3848 69.4082C24.0131 71.259 21.2543 71.8384 18.7842 71.4092C16.3111 70.9794 14.1312 69.5403 12.9004 67.3506C11.6739 65.1682 11.3597 62.1836 12.7256 58.6025L13.085 57.6602L12.1172 57.9443C8.38092 59.043 5.51396 58.2757 3.57227 56.6094C1.61289 54.9278 0.532993 52.2771 0.500977 49.5117C0.469059 46.7507 1.48315 43.9215 3.65137 41.8916C5.81233 39.8687 9.1707 38.5923 13.9189 39.0283C24.7654 40.0217 34.7558 38.117 36.8271 37.6865L37.1221 37.625L37.4053 37.6953ZM47.8398 4.80176C50.2115 2.95214 52.9703 2.37389 55.4404 2.80469C57.9136 3.2361 60.0934 4.67694 61.3242 6.86816C62.5508 9.05183 62.8659 12.0372 61.5 15.6182L61.1406 16.5605L62.1084 16.2764C65.8445 15.1778 68.7115 15.9451 70.6543 17.6113C72.6148 19.293 73.6967 21.9437 73.7295 24.709C73.7622 27.47 72.748 30.2992 70.5791 32.3291C68.4175 34.352 65.0574 35.6285 60.3057 35.1924C50.0183 34.2514 40.4987 35.9134 37.7852 36.457C38.3928 33.9597 40.4246 25.4845 42.5371 14.5449C43.4556 9.79589 45.4693 6.65062 47.8398 4.80176ZM24.7178 0.500977C27.4789 0.468269 30.3079 1.48235 32.3379 3.65137C34.2976 5.74533 35.557 8.96347 35.2373 13.4824L35.2012 13.9238C34.2617 24.2074 35.929 33.7129 36.4648 36.4307C33.959 35.8249 25.4831 33.8051 14.5537 31.6797L14.5527 31.6787C9.80354 30.7602 6.65747 28.7473 4.80762 26.3779C2.95697 24.0074 2.37854 21.2505 2.80859 18.7822C3.23915 16.3111 4.67853 14.133 6.87012 12.9033C9.05445 11.6779 12.0424 11.3645 15.627 12.7305L16.5693 13.0889L16.2842 12.1221C15.1854 8.38578 15.9536 5.51795 17.6201 3.5752C19.3018 1.61478 21.9524 0.533746 24.7178 0.500977Z" fill="#00AB37"/>
<path d="M37.3633 42.2686C37.4866 47.0429 37.0888 51.8352 36.2861 56.5537V56.5557C35.3458 62.1858 33.8861 67.699 32.2949 73.168L31.6064 75.5088C30.6756 78.6339 29.7225 81.7064 28.998 84.8457C28.2603 87.9716 27.7234 91.1397 27.4277 94.3232C26.8479 100.286 27.1661 106.297 28.4053 112.124L28.665 113.287C28.8408 114.041 28.3729 114.804 27.5938 114.993C26.8383 115.167 26.0823 114.696 25.9053 113.938V113.924L25.8955 113.876C24.6132 107.345 24.4672 100.614 25.3535 94.0791H25.3545V94.0742C26.1743 87.5431 28.1599 81.1978 30.3301 75.1133L30.332 75.1055C32.4127 68.9702 34.4086 62.7857 35.7354 56.4473C36.7181 51.7975 37.3074 47.0425 37.3633 42.2686ZM37.4053 37.6953C39.3451 38.1769 48.1538 40.2996 59.6846 42.5283C64.434 43.4468 67.5798 45.4605 69.4287 47.8311C71.2784 50.2027 71.8557 52.9615 71.4248 55.4316C70.9934 57.9046 69.5533 60.0846 67.3623 61.3154C65.1787 62.542 62.1931 62.856 58.6123 61.4902L57.6699 61.1309L57.9541 62.0986C59.0528 65.8349 58.2838 68.7019 56.6162 70.6436C54.9333 72.6028 52.2808 73.6829 49.5137 73.7148C46.7508 73.7467 43.9198 72.7319 41.8887 70.5635C39.8646 68.4025 38.5874 65.0447 39.0234 60.2969C39.7353 52.5076 38.9565 45.1695 38.3135 40.8828L37.3662 40.9746C37.3587 40.1204 37.3356 39.2655 37.292 38.4111L36.3066 38.3203C35.5722 41.378 33.6771 49.4524 31.6885 59.6621L31.6875 59.6631C30.769 64.4121 28.7554 67.5582 26.3848 69.4082C24.0131 71.259 21.2543 71.8384 18.7842 71.4092C16.3111 70.9794 14.1312 69.5403 12.9004 67.3506C11.6739 65.1682 11.3597 62.1836 12.7256 58.6025L13.085 57.6602L12.1172 57.9443C8.38092 59.043 5.51396 58.2757 3.57227 56.6094C1.61289 54.9278 0.532993 52.2771 0.500977 49.5117C0.469059 46.7507 1.48315 43.9215 3.65137 41.8916C5.81233 39.8687 9.1707 38.5923 13.9189 39.0283C24.7654 40.0217 34.7558 38.117 36.8271 37.6865L37.1221 37.625L37.4053 37.6953ZM47.8398 4.80176C50.2115 2.95214 52.9703 2.37389 55.4404 2.80469C57.9136 3.2361 60.0934 4.67694 61.3242 6.86816C62.5508 9.05183 62.8659 12.0372 61.5 15.6182L61.1406 16.5605L62.1084 16.2764C65.8445 15.1778 68.7115 15.9451 70.6543 17.6113C72.6148 19.293 73.6967 21.9437 73.7295 24.709C73.7622 27.47 72.748 30.2992 70.5791 32.3291C68.4175 34.352 65.0574 35.6285 60.3057 35.1924C50.0183 34.2514 40.4987 35.9134 37.7852 36.457C38.3928 33.9597 40.4246 25.4845 42.5371 14.5449C43.4556 9.79589 45.4693 6.65062 47.8398 4.80176ZM24.7178 0.500977C27.4789 0.468269 30.3079 1.48235 32.3379 3.65137C34.2976 5.74533 35.557 8.96347 35.2373 13.4824L35.2012 13.9238C34.2617 24.2074 35.929 33.7129 36.4648 36.4307C33.959 35.8249 25.4831 33.8051 14.5537 31.6797L14.5527 31.6787C9.80354 30.7602 6.65747 28.7473 4.80762 26.3779C2.95697 24.0074 2.37854 21.2505 2.80859 18.7822C3.23915 16.3111 4.67853 14.133 6.87012 12.9033C9.05445 11.6779 12.0424 11.3645 15.627 12.7305L16.5693 13.0889L16.2842 12.1221C15.1854 8.38578 15.9536 5.51795 17.6201 3.5752C19.3018 1.61478 21.9524 0.533746 24.7178 0.500977Z" stroke="black"/>
<path d="M37.3633 42.2686C37.4866 47.0429 37.0888 51.8352 36.2861 56.5537V56.5557C35.3458 62.1858 33.8861 67.699 32.2949 73.168L31.6064 75.5088C30.6756 78.6339 29.7225 81.7064 28.998 84.8457C28.2603 87.9716 27.7234 91.1397 27.4277 94.3232C26.8479 100.286 27.1661 106.297 28.4053 112.124L28.665 113.287C28.8408 114.041 28.3729 114.804 27.5938 114.993C26.8383 115.167 26.0823 114.696 25.9053 113.938V113.924L25.8955 113.876C24.6132 107.345 24.4672 100.614 25.3535 94.0791H25.3545V94.0742C26.1743 87.5431 28.1599 81.1978 30.3301 75.1133L30.332 75.1055C32.4127 68.9702 34.4086 62.7857 35.7354 56.4473C36.7181 51.7975 37.3074 47.0425 37.3633 42.2686ZM37.4053 37.6953C39.3451 38.1769 48.1538 40.2996 59.6846 42.5283C64.434 43.4468 67.5798 45.4605 69.4287 47.8311C71.2784 50.2027 71.8557 52.9615 71.4248 55.4316C70.9934 57.9046 69.5533 60.0846 67.3623 61.3154C65.1787 62.542 62.1931 62.856 58.6123 61.4902L57.6699 61.1309L57.9541 62.0986C59.0528 65.8349 58.2838 68.7019 56.6162 70.6436C54.9333 72.6028 52.2808 73.6829 49.5137 73.7148C46.7508 73.7467 43.9198 72.7319 41.8887 70.5635C39.8646 68.4025 38.5874 65.0447 39.0234 60.2969C39.7353 52.5076 38.9565 45.1695 38.3135 40.8828L37.3662 40.9746C37.3587 40.1204 37.3356 39.2655 37.292 38.4111L36.3066 38.3203C35.5722 41.378 33.6771 49.4524 31.6885 59.6621L31.6875 59.6631C30.769 64.4121 28.7554 67.5582 26.3848 69.4082C24.0131 71.259 21.2543 71.8384 18.7842 71.4092C16.3111 70.9794 14.1312 69.5403 12.9004 67.3506C11.6739 65.1682 11.3597 62.1836 12.7256 58.6025L13.085 57.6602L12.1172 57.9443C8.38092 59.043 5.51396 58.2757 3.57227 56.6094C1.61289 54.9278 0.532993 52.2771 0.500977 49.5117C0.469059 46.7507 1.48315 43.9215 3.65137 41.8916C5.81233 39.8687 9.1707 38.5923 13.9189 39.0283C24.7654 40.0217 34.7558 38.117 36.8271 37.6865L37.1221 37.625L37.4053 37.6953ZM47.8398 4.80176C50.2115 2.95214 52.9703 2.37389 55.4404 2.80469C57.9136 3.2361 60.0934 4.67694 61.3242 6.86816C62.5508 9.05183 62.8659 12.0372 61.5 15.6182L61.1406 16.5605L62.1084 16.2764C65.8445 15.1778 68.7115 15.9451 70.6543 17.6113C72.6148 19.293 73.6967 21.9437 73.7295 24.709C73.7622 27.47 72.748 30.2992 70.5791 32.3291C68.4175 34.352 65.0574 35.6285 60.3057 35.1924C50.0183 34.2514 40.4987 35.9134 37.7852 36.457C38.3928 33.9597 40.4246 25.4845 42.5371 14.5449C43.4556 9.79589 45.4693 6.65062 47.8398 4.80176ZM24.7178 0.500977C27.4789 0.468269 30.3079 1.48235 32.3379 3.65137C34.2976 5.74533 35.557 8.96347 35.2373 13.4824L35.2012 13.9238C34.2617 24.2074 35.929 33.7129 36.4648 36.4307C33.959 35.8249 25.4831 33.8051 14.5537 31.6797L14.5527 31.6787C9.80354 30.7602 6.65747 28.7473 4.80762 26.3779C2.95697 24.0074 2.37854 21.2505 2.80859 18.7822C3.23915 16.3111 4.67853 14.133 6.87012 12.9033C9.05445 11.6779 12.0424 11.3645 15.627 12.7305L16.5693 13.0889L16.2842 12.1221C15.1854 8.38578 15.9536 5.51795 17.6201 3.5752C19.3018 1.61478 21.9524 0.533746 24.7178 0.500977Z" stroke="black" stroke-opacity="0.2"/>
</svg>
