<svg width="50" height="80" viewBox="0 0 50 80" fill="none" xmlns="http://www.w3.org/2000/svg">
<path fill-rule="evenodd" clip-rule="evenodd" d="M40.2667 29.109C32.5067 27.5671 26.5789 26.0992 25.2768 25.7666L25.2676 25.6653L25.2588 25.6374C26.624 25.3421 33.324 24.0308 40.5902 24.7141C53.7033 25.9514 52.1853 7.78074 41.7399 10.9384C45.539 0.698711 30.8451 -3.40983 28.3213 10.0057C26.8124 18.0386 25.3664 24.1509 25.0612 25.4344C25.0341 25.4253 25.0073 25.425 24.9804 25.425L24.9445 25.4344C24.6658 24.0402 23.3817 17.1523 24.0463 9.67345C25.2496 -3.80701 7.57406 -2.24654 10.6457 8.49165C0.676198 4.58608 -3.3113 19.6822 9.73869 22.2767C17.5436 23.8369 23.4893 25.3142 24.7469 25.6283C24.7378 25.6559 24.7289 25.6929 24.7378 25.7205V25.7575C23.3545 26.053 16.6634 27.3641 9.40637 26.6808C-3.69758 25.4435 -2.18874 43.6144 8.25668 40.4565C4.4576 50.6962 19.1512 54.7956 21.675 41.3798C23.0134 34.3166 24.2887 28.7307 24.7826 26.6162C24.9893 30.7803 24.5762 34.9537 23.7408 39.0162C22.8518 43.3835 21.5134 47.6493 20.1125 51.8965C18.6484 56.1161 17.3012 60.5387 16.7442 65.0996C16.1426 69.6609 16.2414 74.3604 17.1125 78.9217V78.9308L17.1216 78.9772C17.2832 79.6881 17.9747 80.1311 18.6664 79.9652C19.3667 79.7898 19.7978 79.0786 19.6362 78.3677C18.6664 74.1205 18.3969 69.7164 18.81 65.349C19.0076 63.1608 19.3667 60.9816 19.8609 58.8304C20.3457 56.6698 20.9835 54.5556 21.6121 52.3859C22.8606 48.0646 24.0463 43.6976 24.7737 39.2195C25.3664 35.637 25.6359 31.99 25.4743 28.3611C25.9054 31.3158 26.4262 36.3664 25.9503 41.7214C24.7469 55.1925 42.4313 53.6414 39.3597 42.9032C49.32 46.8091 53.317 31.7036 40.2667 29.109Z" fill="#00AB37"/>
</svg>
